<svg width="" height="" viewBox="0 0 46 46" fill="none" xmlns="http://www.w3.org/2000/svg">
<g clip-path="url(#clip0_187_5154)">
<path fill-rule="evenodd" clip-rule="evenodd" d="M10.5383 3.08229C11.6936 2.37348 13.1318 2.80327 13.7851 3.89221L18.7794 12.2159C19.4375 13.3128 19.1178 14.7333 18.0532 15.4425L14.0814 18.0882C15.3655 19.9459 17.8885 23.4523 20.0211 25.5849C22.1539 27.7177 25.6607 30.2409 27.5182 31.525L30.1656 27.5539C30.875 26.4898 32.2951 26.1704 33.3917 26.8284L41.7155 31.8227C42.8047 32.4762 43.2344 33.9148 42.5251 35.0702C41.9424 36.0193 40.8593 37.6606 39.4689 39.1951C38.1131 40.6914 36.2975 42.2761 34.2197 42.8329C31.6419 43.5237 28.5916 42.645 26.3972 41.7713C24.1194 40.8644 22.3648 39.7956 22.2165 39.7045L22.2079 39.6991L22.1866 39.6857L22.1684 39.6739L22.1653 39.6718C21.9615 39.5373 16.2135 35.7385 13.0403 32.5653C9.86712 29.3921 6.06943 23.6456 5.93521 23.4423L5.93211 23.4376L5.9203 23.4194L5.90689 23.3982L5.90159 23.3896C5.81059 23.2415 4.74159 21.4869 3.83458 19.209C2.96084 17.0146 2.08199 13.964 2.77315 11.3861C3.33025 9.30819 4.9156 7.49289 6.41232 6.13743C7.94727 4.74734 9.58902 3.66467 10.5383 3.08229ZM11.5876 5.81772C10.7071 6.38215 9.48006 7.23796 8.3422 8.26843C6.95371 9.52589 5.88622 10.8769 5.55008 12.1306C5.12091 13.7314 5.65278 16.0035 6.50563 18.1455C7.29877 20.1374 8.23603 21.6957 8.34296 21.8711C8.59634 22.254 12.1808 27.6399 15.0732 30.5324C17.9656 33.4248 23.3513 37.0092 23.7349 37.263C23.9102 37.3699 25.4686 38.3071 27.4607 39.1003C29.6025 39.953 31.8747 40.4849 33.4756 40.0559C34.7294 39.7199 36.0806 38.6527 37.3384 37.2646C38.3691 36.1271 39.2252 34.9005 39.7899 34.0201L32.3043 29.5288L29.635 33.5328C28.9081 34.6232 27.4214 34.9423 26.3115 34.1841C24.63 33.0355 20.5079 30.1376 17.9882 27.6178C15.4686 25.0983 12.5708 20.9765 11.4221 19.2948C10.6637 18.1846 10.9833 16.6975 12.0742 15.9708L16.0789 13.3032L11.5876 5.81772ZM8.33208 21.8546C8.33195 21.8544 8.33199 21.8545 8.33208 21.8546V21.8546Z" fill="#D9D9D9"/>
<path fill-rule="evenodd" clip-rule="evenodd" d="M30.2504 14.1481L29.2257 12.0987C28.8706 11.3886 28.0071 11.1008 27.297 11.4558C26.5869 11.8109 26.2991 12.6743 26.6542 13.3844L28.4519 16.9799C28.9492 17.9745 30.2748 18.1896 31.0611 17.4033L38.5397 9.92467C39.1011 9.36329 39.1011 8.45312 38.5397 7.89174C37.9783 7.33036 37.0682 7.33036 36.5068 7.89174L30.2504 14.1481Z" fill="#D9D9D9"/>
</g>
<defs>
<clipPath id="clip0_187_5154">
<rect width="46" height="46" fill="white"/>
</clipPath>
</defs>
</svg>
