<svg width="46" height="46" viewBox="0 0 46 46" fill="none" xmlns="http://www.w3.org/2000/svg">
<path d="M15.3352 23C15.3352 18.766 18.7667 15.3327 23.0009 15.3327C27.2351 15.3327 30.6685 18.766 30.6685 23C30.6685 27.234 27.2351 30.6673 23.0009 30.6673C18.7667 30.6673 15.3352 27.234 15.3352 23ZM11.1902 23C11.1902 29.5228 16.4779 34.8102 23.0009 34.8102C29.524 34.8102 34.8116 29.5228 34.8116 23C34.8116 16.4772 29.524 11.1898 23.0009 11.1898C16.4779 11.1898 11.1902 16.4772 11.1902 23ZM32.5191 10.7215C32.5189 11.2674 32.6805 11.8011 32.9836 12.2551C33.2867 12.7091 33.7177 13.063 34.2219 13.2721C34.7262 13.4812 35.2811 13.5361 35.8166 13.4298C36.352 13.3235 36.8439 13.0608 37.2301 12.675C37.6163 12.2892 37.8793 11.7975 37.986 11.2621C38.0928 10.7268 38.0383 10.1718 37.8296 9.66741C37.6209 9.16301 37.2673 8.73181 36.8135 8.42836C36.3598 8.1249 35.8262 7.96282 35.2803 7.9626H35.2792C34.5474 7.96294 33.8458 8.25368 33.3283 8.77097C32.8107 9.28826 32.5197 9.98979 32.5191 10.7215ZM13.7085 41.7214C11.4661 41.6193 10.2472 41.2458 9.43719 40.9302C8.36332 40.5122 7.59711 40.0143 6.79153 39.2098C5.98594 38.4054 5.48728 37.64 5.07106 36.5661C4.7553 35.7565 4.38177 34.5374 4.27983 32.2949C4.16832 29.8706 4.14605 29.1423 4.14605 23.0002C4.14605 16.8581 4.17016 16.1318 4.27983 13.7054C4.38195 11.463 4.75825 10.2462 5.07106 9.43423C5.48912 8.36041 5.98705 7.59423 6.79153 6.78868C7.59601 5.98313 8.36148 5.48449 9.43719 5.06828C10.2468 4.75254 11.4661 4.37902 13.7085 4.27708C16.133 4.16558 16.8613 4.14331 23.0009 4.14331C29.1405 4.14331 29.8695 4.16742 32.2961 4.27708C34.5386 4.3792 35.7554 4.75548 36.5674 5.06828C37.6413 5.48449 38.4075 5.98423 39.2131 6.78868C40.0187 7.59313 40.5155 8.36041 40.9335 9.43423C41.2493 10.2438 41.6228 11.463 41.7248 13.7054C41.8363 16.1318 41.8585 16.8581 41.8585 23.0002C41.8585 29.1423 41.8363 29.8685 41.7248 32.2949C41.6227 34.5374 41.2473 35.7562 40.9335 36.5661C40.5155 37.64 40.0176 38.4061 39.2131 39.2098C38.4086 40.0136 37.6413 40.5122 36.5674 40.9302C35.7578 41.246 34.5386 41.6195 32.2961 41.7214C29.8716 41.833 29.1433 41.8552 23.0009 41.8552C16.8586 41.8552 16.1323 41.833 13.7085 41.7214ZM13.5181 0.139288C11.0695 0.250792 9.39634 0.639032 7.93513 1.20759C6.42186 1.79474 5.1408 2.58244 3.86066 3.8605C2.58052 5.13857 1.79481 6.4216 1.20764 7.93482C0.639058 9.39688 0.250802 11.0691 0.139294 13.5176C0.025945 15.9699 0 16.7539 0 23C0 29.2461 0.025945 30.0301 0.139294 32.4824C0.250802 34.9311 0.639058 36.6031 1.20764 38.0652C1.79481 39.5775 2.5807 40.862 3.86066 42.1395C5.14061 43.417 6.42186 44.2036 7.93513 44.7924C9.3991 45.361 11.0695 45.7492 13.5181 45.8607C15.9718 45.9722 16.7546 46 23.0009 46C29.2472 46 30.0313 45.9741 32.4837 45.8607C34.9325 45.7492 36.6046 45.361 38.0667 44.7924C39.5791 44.2036 40.861 43.4176 42.1412 42.1395C43.4213 40.8614 44.2054 39.5775 44.7942 38.0652C45.3628 36.6031 45.7529 34.9309 45.8625 32.4824C45.9741 30.0282 46 29.2461 46 23C46 16.7539 45.9741 15.9699 45.8625 13.5176C45.751 11.0689 45.3628 9.39596 44.7942 7.93482C44.2054 6.42252 43.4193 5.14059 42.1412 3.8605C40.8631 2.58042 39.5791 1.79474 38.0686 1.20759C36.6046 0.639032 34.9323 0.248952 32.4856 0.139288C30.0331 0.027784 29.2491 0 23.0028 0C16.7564 0 15.9718 0.025944 13.5181 0.139288Z" fill="white"/>
</svg>
