<svg width="" height="" viewBox="0 0 95 40" fill="none" xmlns="http://www.w3.org/2000/svg">
<path d="M14.9643 32H2.14998V12.3696H14.9643V15.8322H5.85796V20.0309H13.3284V23.4935H5.85796V28.5374H14.9643V32ZM26.4929 32H22.785V15.8322H16.5959V12.3696H32.682V15.8322H26.4929V32ZM43.2975 32.409C41.3617 32.409 39.6758 31.9864 38.2399 31.1412C36.804 30.2869 35.6997 29.0873 34.9273 27.5423C34.1638 25.9973 33.7821 24.2115 33.7821 22.1848C33.7821 20.1581 34.1638 18.3723 34.9273 16.8273C35.6997 15.2823 36.804 14.0872 38.2399 13.242C39.6758 12.3878 41.3617 11.9606 43.2975 11.9606C45.2332 11.9606 46.9191 12.3878 48.355 13.242C49.791 14.0872 50.8906 15.2823 51.654 16.8273C52.4265 18.3723 52.8128 20.1581 52.8128 22.1848C52.8128 24.2115 52.4265 25.9973 51.654 27.5423C50.8906 29.0873 49.791 30.2869 48.355 31.1412C46.9191 31.9864 45.2332 32.409 43.2975 32.409ZM43.4065 28.9191C44.6062 28.9191 45.6149 28.642 46.4329 28.0876C47.2508 27.5332 47.8643 26.7516 48.2732 25.7428C48.6822 24.734 48.8867 23.548 48.8867 22.1848C48.8867 20.0764 48.405 18.4268 47.4417 17.2363C46.4783 16.0457 45.0606 15.4505 43.1884 15.4505C41.9888 15.4505 40.98 15.7277 40.162 16.282C39.3441 16.8364 38.7307 17.618 38.3217 18.6268C37.9127 19.6356 37.7082 20.8216 37.7082 22.1848C37.7082 24.2933 38.1899 25.9428 39.1533 27.1333C40.1166 28.3239 41.5344 28.9191 43.4065 28.9191ZM71.7565 32H67.1624L60.6053 23.9979L59.1058 25.6474V32H55.5341V12.3696H59.1058V20.6035L66.7126 12.3696H71.2385L63.0318 21.3396L71.7565 32Z" fill="black"/>
<path d="M89.9062 0.444L79.5054 10.2753L89.9062 20.001H94.0481L84.1075 10.2753L94.0481 0.444H89.9062Z" fill="black"/>
<path d="M77.4151 31.9686L87.8159 22.1372L77.4151 12.4116L73.2732 12.4116L83.2138 22.1372L73.2732 31.9686L77.4151 31.9686Z" fill="black"/>
<path d="M94.7866 25.0532C94.7866 26.7158 93.6189 28.0116 92.2383 28.0116C90.8577 28.0116 89.6901 26.7158 89.6901 25.0532C89.6901 23.3907 90.8577 22.0948 92.2383 22.0948C93.6189 22.0948 94.7866 23.3907 94.7866 25.0532Z" stroke="black" stroke-width="0.426008"/>
</svg>
