<svg width="46" height="46" viewBox="0 0 46 46" fill="none" xmlns="http://www.w3.org/2000/svg">
<path d="M0 46L3.30306 33.7392C0.639225 28.9631 -0.207102 23.3897 0.919382 18.0417C2.04587 12.6938 5.0696 7.93018 9.43572 4.62488C13.8018 1.31959 19.2175 -0.305622 24.6889 0.0474828C30.1602 0.400588 35.3204 2.70832 39.2223 6.54721C43.1243 10.3861 45.5063 15.4986 45.9314 20.9467C46.3565 26.3947 44.796 31.8128 41.5364 36.2067C38.2767 40.6006 33.5366 43.6756 28.1858 44.8674C22.8349 46.0592 17.2323 45.2879 12.406 42.695L0 46ZM13.0042 38.107L13.7714 38.5606C17.2672 40.6257 21.3502 41.4803 25.3842 40.9911C29.4182 40.502 33.1766 38.6967 36.0736 35.8564C38.9706 33.0162 40.8435 29.3006 41.4005 25.2887C41.9575 21.2768 41.1673 17.194 39.153 13.6764C37.1387 10.1589 34.0135 7.4042 30.2644 5.8417C26.5152 4.27919 22.3528 3.99662 18.4257 5.03803C14.4986 6.07943 11.0274 8.3863 8.55316 11.5992C6.07889 14.812 4.74049 18.7504 4.74652 22.8005C4.74324 26.1587 5.6751 29.4519 7.43839 32.3136L7.91954 33.1042L6.07295 39.9474L13.0042 38.107Z" fill="white"/>
<path fill-rule="evenodd" clip-rule="evenodd" d="M31.6259 25.949C31.1761 25.5874 30.6494 25.333 30.0861 25.2049C29.5227 25.0769 28.9374 25.0787 28.3748 25.2102C27.5295 25.5602 26.9834 26.8822 26.4372 27.5432C26.322 27.7016 26.1528 27.8127 25.9613 27.8557C25.7697 27.8986 25.569 27.8705 25.3969 27.7764C22.3023 26.5685 19.7084 24.3532 18.0365 21.4905C17.8939 21.3119 17.8264 21.0851 17.8482 20.8578C17.8701 20.6306 17.9795 20.4207 18.1535 20.2722C18.7627 19.6712 19.21 18.9268 19.454 18.1078C19.5081 17.2045 19.3005 16.3047 18.8558 15.5157C18.512 14.4096 17.8576 13.4247 16.9702 12.6773C16.5124 12.4721 16.0049 12.4033 15.5088 12.4792C15.0127 12.5551 14.5492 12.7725 14.1743 13.105C13.5234 13.6647 13.0067 14.3628 12.6624 15.1479C12.318 15.9329 12.1548 16.785 12.1846 17.6412C12.1866 18.1221 12.2478 18.6009 12.3667 19.0669C12.6686 20.1866 13.133 21.2563 13.7451 22.2423C14.1867 22.9975 14.6686 23.7287 15.1886 24.4326C16.8785 26.7448 19.0028 28.7079 21.4436 30.213C22.6684 30.9779 23.9774 31.5998 25.3448 32.0664C26.7653 32.7082 28.3337 32.9545 29.8833 32.7792C30.7662 32.6461 31.6028 32.2986 32.3194 31.7675C33.0359 31.2364 33.6105 30.5379 33.9926 29.7335C34.2171 29.2476 34.2853 28.7043 34.1877 28.1782C33.9536 27.1025 32.5101 26.4674 31.6259 25.949Z" fill="white"/>
</svg>
